<svg width="20" height="16" viewBox="0 0 20 16" fill="none" xmlns="http://www.w3.org/2000/svg">
<path d="M7.5 8C8.49456 8 9.44839 7.60491 10.1517 6.90165C10.8549 6.19839 11.25 5.24456 11.25 4.25C11.25 3.25544 10.8549 2.30161 10.1517 1.59835C9.44839 0.895088 8.49456 0.5 7.5 0.5C6.50544 0.5 5.55161 0.895088 4.84835 1.59835C4.14509 2.30161 3.75 3.25544 3.75 4.25C3.75 5.24456 4.14509 6.19839 4.84835 6.90165C5.55161 7.60491 6.50544 8 7.5 8ZM1.25 15.5C1.25 15.5 0 15.5 0 14.25C0 13 1.25 9.25 7.5 9.25C13.75 9.25 15 13 15 14.25C15 15.5 13.75 15.5 13.75 15.5H1.25ZM13.75 2.375C13.75 2.20924 13.8158 2.05027 13.9331 1.93306C14.0503 1.81585 14.2092 1.75 14.375 1.75H19.375C19.5408 1.75 19.6997 1.81585 19.8169 1.93306C19.9342 2.05027 20 2.20924 20 2.375C20 2.54076 19.9342 2.69973 19.8169 2.81694C19.6997 2.93415 19.5408 3 19.375 3H14.375C14.2092 3 14.0503 2.93415 13.9331 2.81694C13.8158 2.69973 13.75 2.54076 13.75 2.375ZM14.375 5.5C14.2092 5.5 14.0503 5.56585 13.9331 5.68306C13.8158 5.80027 13.75 5.95924 13.75 6.125C13.75 6.29076 13.8158 6.44973 13.9331 6.56694C14.0503 6.68415 14.2092 6.75 14.375 6.75H19.375C19.5408 6.75 19.6997 6.68415 19.8169 6.56694C19.9342 6.44973 20 6.29076 20 6.125C20 5.95924 19.9342 5.80027 19.8169 5.68306C19.6997 5.56585 19.5408 5.5 19.375 5.5H14.375ZM16.875 9.25C16.7092 9.25 16.5503 9.31585 16.4331 9.43306C16.3158 9.55027 16.25 9.70924 16.25 9.875C16.25 10.0408 16.3158 10.1997 16.4331 10.3169C16.5503 10.4342 16.7092 10.5 16.875 10.5H19.375C19.5408 10.5 19.6997 10.4342 19.8169 10.3169C19.9342 10.1997 20 10.0408 20 9.875C20 9.70924 19.9342 9.55027 19.8169 9.43306C19.6997 9.31585 19.5408 9.25 19.375 9.25H16.875ZM16.875 13C16.7092 13 16.5503 13.0658 16.4331 13.1831C16.3158 13.3003 16.25 13.4592 16.25 13.625C16.25 13.7908 16.3158 13.9497 16.4331 14.0669C16.5503 14.1842 16.7092 14.25 16.875 14.25H19.375C19.5408 14.25 19.6997 14.1842 19.8169 14.0669C19.9342 13.9497 20 13.7908 20 13.625C20 13.4592 19.9342 13.3003 19.8169 13.1831C19.6997 13.0658 19.5408 13 19.375 13H16.875Z" fill="#535453"/>
</svg>
